<?xml version="1.0" standalone="no"?>
<!DOCTYPE svg PUBLIC "-//W3C//DTD SVG 20010904//EN"
 "http://www.w3.org/TR/2001/REC-SVG-20010904/DTD/svg10.dtd">
<svg version="1.0" xmlns="http://www.w3.org/2000/svg"
 width="500.000000pt" height="500.000000pt" viewBox="0 0 500.000000 500.000000"
 preserveAspectRatio="xMidYMid meet">
<metadata>
Created by potrace 1.11, written by Peter Selinger 2001-2013
</metadata>
<g transform="translate(0.000000,500.000000) scale(0.100000,-0.100000)"
fill="#000000" stroke="none">
<path d="M0 2500 l0 -2500 2500 0 2500 0 0 2500 0 2500 -2500 0 -2500 0 0
-2500z m2639 1408 c-3 -400 -1 -508 9 -526 14 -24 68 -62 88 -62 6 0 22 44 34
98 51 220 137 408 225 492 30 28 85 65 122 82 59 28 80 32 174 36 138 6 231
-14 364 -77 544 -260 939 -942 1042 -1801 21 -179 24 -671 4 -825 -22 -177
-51 -334 -76 -414 -91 -288 -359 -419 -582 -284 -78 47 -91 59 -204 204 -164
212 -275 301 -604 489 -224 128 -282 167 -335 227 -90 102 -122 197 -150 442
-33 295 -42 483 -38 799 3 261 1 304 -12 312 -8 5 -48 17 -89 26 -86 19 -225
15 -307 -10 l-51 -16 0 -302 c1 -297 -10 -497 -49 -862 -21 -202 -39 -258
-118 -362 -63 -84 -123 -128 -353 -256 -109 -60 -229 -131 -267 -156 -101 -67
-246 -211 -341 -337 -96 -129 -148 -178 -222 -212 -254 -117 -506 42 -582 367
-60 256 -91 647 -72 932 49 784 284 1378 703 1784 125 121 240 203 370 264
123 57 199 73 338 68 158 -6 211 -27 306 -122 110 -111 162 -235 215 -519 10
-53 13 -57 32 -51 38 11 66 33 84 67 15 28 18 85 24 512 4 264 8 483 8 488 1
4 71 7 157 7 l156 0 -3 -502z"/>
</g>
</svg>
