<?xml version="1.0" encoding="utf-8"?>
<!-- Generator: Adobe Illustrator 16.0.0, SVG Export Plug-In . SVG Version: 6.00 Build 0)  -->
<!DOCTYPE svg PUBLIC "-//W3C//DTD SVG 1.1//EN" "http://www.w3.org/Graphics/SVG/1.1/DTD/svg11.dtd">
<svg version="1.1" id="Layer_1" xmlns="http://www.w3.org/2000/svg" xmlns:xlink="http://www.w3.org/1999/xlink" x="0px" y="0px"
	 width="276.562px" height="94.001px" viewBox="0 0 276.562 94.001" enable-background="new 0 0 276.562 94.001"
	 xml:space="preserve">
<g>
	<path fill="#296FAF" d="M7.738,69.453v0.767c0,0.417,0.268,0.624,0.807,0.624h0.584c3.713,0,5.567,1.395,5.567,4.178
		c0,0.927-0.464,1.855-1.392,2.784c0.928,0.927,1.392,1.856,1.392,2.784c0,0.927-0.464,1.855-1.392,2.784
		c0.928,0.927,1.392,1.856,1.392,2.782c0,2.785-1.854,4.174-5.567,4.174H6.344v-2.784h2.785c1.854,0,2.784-0.464,2.784-1.39
		s-0.93-1.391-2.784-1.391H4.954v-2.784h4.175c1.854,0,2.784-0.465,2.784-1.392c0-0.928-0.93-1.392-2.784-1.392H4.954v-2.785h4.175
		c1.854,0,2.784-0.465,2.784-1.392c0-0.928-0.93-1.393-2.784-1.393H7.738c-1.856,0-2.784-0.928-2.784-2.785v-1.391H7.738z"/>
	<path fill="#296FAF" d="M23.049,90.33c-3.713,0-5.568-1.854-5.568-5.564v-5.567h2.784v5.567c0,1.854,0.927,2.78,2.784,2.78
		c1.855,0,2.781-0.927,2.781-2.78v-8.353c0-1.854-0.926-2.784-2.781-2.784h-4.176v-2.785h4.176c3.711,0,5.566,1.857,5.566,5.569
		v8.353C28.615,88.476,26.76,90.33,23.049,90.33z"/>
	<path fill="#296FAF" d="M39.749,76.413v8.353c0,3.71-1.856,5.564-5.565,5.564h-2.784v-2.784h2.784c1.854,0,2.782-0.927,2.782-2.78
		v-8.353c0-1.854-0.928-2.784-2.782-2.784h-2.784v-2.785h2.784C37.893,70.844,39.749,72.701,39.749,76.413z"/>
	<path fill="#296FAF" d="M42.533,90.33V76.413c0-3.712,1.857-5.569,5.567-5.569h4.175v2.785h-4.175c-1.855,0-2.783,0.93-2.783,2.784
		v1.393h2.783c3.709,0,5.567,1.856,5.567,5.568v6.956h-2.785v-6.956c0-1.857-0.928-2.784-2.782-2.784h-2.783v9.74H42.533z"/>
	<path fill="#296FAF" d="M56.45,90.33V76.413c0-3.712,1.858-5.569,5.568-5.569c3.712,0,5.566,1.857,5.566,5.569V90.33h-2.782V76.413
		c0-1.854-0.93-2.784-2.784-2.784s-2.784,0.93-2.784,2.784V90.33H56.45z"/>
	<path fill="#296FAF" d="M73.152,70.844v13.922c0,1.854,0.928,2.78,2.784,2.78c1.854,0,2.783-0.927,2.783-2.78v-5.567h2.784v5.567
		c0,3.71-1.855,5.564-5.567,5.564s-5.565-1.854-5.565-5.564V70.844H73.152z"/>
</g>
<g>
	<path fill="#296FAF" d="M34.263,11.081c2.765-2.765,6.913-4.146,12.442-4.146c11.063,0,16.591,5.529,16.591,16.593
		c0,5.53-1.38,9.679-4.144,12.446c2.764,2.767,4.144,6.911,4.144,12.441c0,11.063-5.528,16.595-16.591,16.595H22.724v-8.298h23.981
		c5.534,0,8.297-2.766,8.297-8.297c0-5.53-2.763-8.295-8.297-8.295h-4.148v-8.297h4.148c5.534,0,8.297-2.766,8.297-8.296
		s-2.763-8.295-8.297-8.295c-5.529,0-8.294,2.765-8.294,8.295v4.148c0,11.064-5.53,16.592-16.594,16.592
		c-11.062,0-16.589-5.527-16.589-16.592v-4.148c0-11.063,5.527-16.593,16.589-16.593C27.35,6.935,31.497,8.316,34.263,11.081z
		 M13.523,23.527v4.148c0,5.53,2.764,8.298,8.294,8.298c5.532,0,8.3-2.768,8.3-8.298v-4.148c0-5.53-2.768-8.295-8.3-8.295
		C16.287,15.232,13.523,17.997,13.523,23.527z"/>
	<path fill="#296FAF" d="M71.597,65.01V23.527c0-11.063,5.53-16.593,16.589-16.593c11.063,0,16.596,5.529,16.596,16.593V65.01
		h-8.296V23.527c0-5.53-2.767-8.295-8.3-8.295c-5.53,0-8.294,2.765-8.294,8.295V65.01H71.597z"/>
	<path fill="#296FAF" d="M129.667,6.935c11.061,0,16.591,5.529,16.591,16.593V40.12h-8.294V23.527c0-5.53-2.767-8.295-8.297-8.295
		s-8.296,2.765-8.296,8.295v24.888c0,5.531,2.766,8.297,8.296,8.297h12.444v8.298h-12.444c-11.059,0-16.592-5.531-16.592-16.595
		V23.527C113.075,12.464,118.608,6.935,129.667,6.935z"/>
	<path fill="#296FAF" d="M162.853,23.527v24.888c0,5.531,2.765,8.297,8.294,8.297c5.534,0,8.297-2.766,8.297-8.297V23.527h8.3
		v24.888c0,11.063-5.533,16.595-16.597,16.595c-11.061,0-16.589-5.531-16.589-16.595V23.527H162.853z M167,23.527V6.935h8.297
		v16.593H167z"/>
	<path fill="#296FAF" d="M196.037,65.01V23.527c0-11.063,5.529-16.593,16.595-16.593h12.441v8.298h-12.441
		c-5.534,0-8.3,2.765-8.3,8.295v4.148h8.3c11.057,0,16.589,5.53,16.589,16.592V65.01h-8.295V44.268c0-5.527-2.766-8.294-8.294-8.294
		h-8.3V65.01H196.037z"/>
	<path fill="#296FAF" d="M237.518,65.01V23.527c0-11.063,5.53-16.593,16.594-16.593c11.06,0,16.59,5.529,16.59,16.593V65.01h-8.295
		V23.527c0-5.53-2.765-8.295-8.295-8.295c-5.534,0-8.298,2.765-8.298,8.295V65.01H237.518z"/>
</g>
</svg>
