<?xml version="1.0" encoding="utf-8"?>
<!-- Generator: Adobe Illustrator 16.0.0, SVG Export Plug-In . SVG Version: 6.00 Build 0)  -->
<!DOCTYPE svg PUBLIC "-//W3C//DTD SVG 1.1//EN" "http://www.w3.org/Graphics/SVG/1.1/DTD/svg11.dtd">
<svg version="1.1" id="Layer_1" xmlns="http://www.w3.org/2000/svg" xmlns:xlink="http://www.w3.org/1999/xlink" x="0px" y="0px"
	 width="346.5px" height="152.5px" viewBox="0 0 346.5 152.5" enable-background="new 0 0 346.5 152.5" xml:space="preserve">
<g>
	<path fill="#296FAF" d="M68,4.934V105h20V4.934C88,4.528,87.502,4,87.399,4H68.679C68.583,4,68,4.521,68,4.934z"/>
	<path fill="#296FAF" d="M343.374,105l-14.793-41.96l-0.15-0.443c2.233-1.218,4.199-2.831,5.896-4.699
		c1.695-1.868,3.166-3.986,4.111-6.282c0.943-2.296,1.563-4.696,1.563-7.133V25.896c0-4.083-1.129-7.729-3.088-10.938
		c-1.963-3.208-4.791-6.018-8.346-7.855C325.011,5.265,320.854,4,316.242,4h-29.861c-0.792,0-1.513,0.478-2.163,0.864
		c-0.651,0.385-0.722,1.049-1.097,1.709C282.742,7.233,283,8.082,283,8.833V105h20V70.231c2-1.218,2.269-1.829,3.953-1.829
		c1.261,0,2.452,0.628,3.729,1.341L322.521,105H343.374z M318.959,45.915c-0.762,1.239-1.746,3.241-3.057,3.971
		c-1.313,0.731-2.688,2.114-4.23,2.114H303.9c-0.689,0-1.95-1.275-2.467-1.794c-0.52-0.516-1.434-2.138-1.434-2.83V21.782
		c0-0.548,0.854-0.863,1.252-1.302c0.395-0.436,1.512-0.48,2.04-0.48h8.38c1.542,0,2.97,0.195,4.28,0.937
		c1.312,0.744,2.245,1.667,3.007,2.945c0.763,1.278,1.041,2.605,1.041,4.146v13.862C320,43.333,319.722,44.676,318.959,45.915z"/>
	<path fill="#296FAF" d="M267,87.578c0,0-1.512,1.422-1.586,1.422H235V62h23.326c0.165,0,0.674-0.79,0.674-0.803V43.91
		c0-0.013-0.509,0.09-0.674,0.09H235V23h30.414c0.695,0,1.586-1.43,2.586-1.759V4.562C267,4.261,266.129,4,265.414,4h-42.673
		c-1.159,0-1.515,0.398-2.237,1.103C219.78,5.809,220,6.756,220,7.855v93.449c0,1.099-0.217,1.921,0.516,2.672
		c0.734,0.755,1.087,1.024,2.226,1.024h42.673c0.074,0,1.586,0.184,1.586,0.181V87.578z"/>
	<path fill="#296FAF" d="M203,4h-43.346C159.229,4,159,3.842,159,3.935v17.688c0,0.078,0.229,1.377,0.654,1.377H173v82h18V23h12V4z"
		/>
	<path fill="#296FAF" d="M56,3.701C56,3.729,55.231,4,54.87,4H9.774C8.981,4,8.26,3.628,7.609,3.965
		C6.96,4.299,6.192,4.477,5.817,5.036C5.441,5.594,5,5.927,5,6.577V105h19V64h23.557C47.945,64,49,63.03,49,62.928v-17.74
		C49,45.146,47.946,45,47.557,45H24V23h30.87c0.367,0,1.13-1.334,1.13-1.461V3.701z"/>
	<path fill="#296FAF" d="M159,85.036C159,85,157.916,86,157.645,86H132V4.019C132,3.935,131.17,4,131.165,4h-18.828
		C112.333,4,112,3.935,112,4.019v96.042c0,0.649,0.32,1.253,0.654,1.812c0.336,0.558,0.858,1.65,1.419,1.983
		c0.56,0.337,1.238,1.145,1.889,1.145h41.683c0.268,0,1.355-1.305,1.355-1.347V85.036z"/>
</g>
<g>
	<path fill="#296FAF" d="M33,113.453v35.904c0,0.017-0.399,0.643-0.399,0.643h6.571c0,0-0.172-0.625-0.172-0.643v-35.904
		c0-0.003,0,0.547,0,0.547h-6C33,114,33,113.45,33,113.453z"/>
	<path fill="#296FAF" d="M66.66,150l-5.233-15.68l-0.052-0.255c0.773-0.425,1.454-1.034,2.039-1.68
		c0.589-0.647,0.908-1.405,1.234-2.198c0.328-0.797,0.352-1.652,0.352-2.495v-6.433c0-1.412-0.199-2.672-0.877-3.785
		c-0.684-1.109-1.566-1.923-2.797-2.558C60.098,114.28,58.754,114,57.157,114H46.824c-0.273,0-0.522,0.01-0.747,0.143
		c-0.225,0.134-0.577,0.282-0.71,0.51c-0.128,0.229-0.367,0.444-0.367,0.704V150h8v-13.4c0-0.422,0.57-0.632,1.158-0.632
		c0.434,0,0.74,0.423,1.183,0.669L59.438,150H66.66z M57.37,128.187c-0.264,0.428-0.243,0.975-0.696,1.228
		c-0.453,0.253-0.563,0.585-1.098,0.585h-2.688c-0.238,0,0.056-0.294-0.122-0.473c-0.182-0.18,0.234-0.596,0.234-0.835v-8.856
		c0-0.189-0.438,0.09-0.299-0.061c0.137-0.15-0.207,0.225-0.025,0.225h2.9c0.535,0,1.028-0.321,1.481-0.065
		c0.453,0.26,0.049,0.383,0.313,0.825c0.26,0.442-0.37,0.703-0.37,1.24v4.796C57,127.295,57.63,127.759,57.37,128.187z"/>
	<path fill="#296FAF" d="M28.602,150c-0.002,0-0.002-0.332-0.004-0.342l-6.906-34.309c-0.078-0.394-0.303-0.709-0.674-0.97
		c-0.375-0.26-0.8-0.379-1.277-0.379h-6.642c-0.452,0-0.861,0.045-1.229,0.305c-0.368,0.259-0.592,0.541-0.669,0.936l-6.96,34.441
		C4.238,149.688,4.238,150,4.237,150h7.258l1.551-10h6.8l1.551,10H28.602z M13.94,136l2.216-13.828
		c0.026-0.091,0.06-0.457,0.099-0.499c0.038-0.042,0.093-0.211,0.163-0.211s0.125-0.055,0.163-0.012
		c0.039,0.042,0.072,0.668,0.102,0.76L18.95,136H13.94z"/>
</g>
</svg>
