<svg xmlns="http://www.w3.org/2000/svg" xmlns:xlink="http://www.w3.org/1999/xlink" version="1.1" x="0px" y="0px" viewBox="0 0 100 125" enable-background="new 0 0 100 100" xml:space="preserve"><path d="M74.943,61.664c0,4.419-3.29,19.404-3.29,19.404c-0.691,3.545-4.027,7.369-8.215,7.369H43.705  c-2.922,0-5.537-1.734-6.661-4.422c0,0-9.678-17.974-13.669-24.484c-2.656-4.562-2.625-4.562,0.828-6.43  c0.577-0.33,1.23-0.506,1.892-0.506c1.352,0,2.375,0.842,3.287,1.887l5.974,6.896l1.806,2.385v-2.986V20.098  c0-2.009,1.925-3.771,4.12-3.771c2.09,0,3.79,1.692,3.791,3.795l0.66,27.709l0.023,0.977h1.67l0.033-0.966l0.332-29.69  c0-2.08,1.699-3.772,3.789-3.772c2.091,0,3.789,1.692,3.79,3.806l0.33,30.656l0.033,0.966h1.681l-0.001-0.951l0.33-25.751  c0-2.08,1.699-3.772,3.789-3.772c2.091,0,3.791,1.692,3.792,3.821l0.329,26.703l0.047,0.951h1.338l-0.005-0.889l0.331-16.954  l0.006-0.055v-0.056c0-2.08,1.699-3.772,3.789-3.772s3.788,1.692,3.788,3.772C74.945,32.855,74.943,57.245,74.943,61.664z"/></svg>