<?xml version="1.0" encoding="utf-8"?>
<!-- Generator: Adobe Illustrator 21.0.0, SVG Export Plug-In . SVG Version: 6.00 Build 0)  -->
<svg version="1.1" id="Layer_1" xmlns="http://www.w3.org/2000/svg" xmlns:xlink="http://www.w3.org/1999/xlink" x="0px" y="0px"
	 viewBox="0 0 50 50" style="enable-background:new 0 0 50 50;" xml:space="preserve">
<style type="text/css">
	.st0{fill:#FFFFFF;}
</style>
<g id="Twitter_7_">
	<path id="Twitter_1_" class="st0" d="M36,15.4c-1,0.6-2,1-3.1,1.2C32,15.6,30.7,15,29.3,15c-2.7,0-4.9,2.2-4.9,5
		c0,0.4,0.1,0.8,0.1,1.1c-4.1-0.2-7.6-2.2-10-5.2c-0.4,0.8-0.6,1.6-0.6,2.5c0,1.7,0.9,3.2,2.2,4.2c-0.8,0-1.5-0.3-2.2-0.6v0.1
		c0,2.4,1.6,4.4,3.9,4.9c-0.4,0.1-0.8,0.2-1.3,0.2c-0.3,0-0.6,0-0.9-0.1c0.6,2,2.4,3.4,4.6,3.5c-1.6,1.3-3.7,2.2-6,2.2
		c-0.4,0-0.8,0-1.1-0.1c2.2,1.4,4.7,2.2,7.5,2.2c8.9,0,13.9-7.6,13.9-14.2c0-0.2,0-0.4,0-0.6c0.9-0.7,1.8-1.6,2.4-2.6
		c-0.9,0.4-1.8,0.7-2.8,0.8C34.8,17.5,35.6,16.5,36,15.4z"/>
	<path class="st0" d="M25,50C11.2,50,0,38.8,0,25C0,11.2,11.2,0,25,0c13.8,0,25,11.2,25,25S38.8,50,25,50z M25,1.9
		C12.3,1.9,1.9,12.3,1.9,25c0,12.7,10.4,23.1,23.1,23.1c12.7,0,23.1-10.4,23.1-23.1C48.1,12.3,37.7,1.9,25,1.9z"/>
</g>
</svg>
