<?xml version="1.0" encoding="utf-8"?>
<!-- Generator: Adobe Illustrator 16.0.0, SVG Export Plug-In . SVG Version: 6.00 Build 0)  -->
<!DOCTYPE svg PUBLIC "-//W3C//DTD SVG 1.1//EN" "http://www.w3.org/Graphics/SVG/1.1/DTD/svg11.dtd">
<svg version="1.1" id="Layer_1" xmlns="http://www.w3.org/2000/svg" xmlns:xlink="http://www.w3.org/1999/xlink" x="0px" y="0px"
	 width="50px" height="50px" viewBox="0 0 50 50" enable-background="new 0 0 50 50" xml:space="preserve">
<g id="Facebook_6_">
	<path fill="#43619C" d="M25.001,50.001C11.203,50.001,0,38.798,0,25c0-13.798,11.202-25,25-25C38.799,0,50,11.202,50,25
		C50,38.798,38.799,50.001,25.001,50.001z M25.001,1.898C12.279,1.898,1.899,12.278,1.899,25c0,12.723,10.38,23.102,23.102,23.102
		c12.721,0,23.101-10.379,23.101-23.102C48.102,12.278,37.722,1.898,25.001,1.898z"/>
	<path id="Facebook_1_" fill="#43619C" d="M36.456,34.873c0,0.696-0.569,1.267-1.266,1.267h-5.949v-8.988h3.038l0.443-3.48h-3.481
		v-2.216c0-1.013,0.253-1.708,1.708-1.708h1.836v-3.165c-0.316-0.062-1.393-0.126-2.723-0.126c-2.657,0-4.492,1.646-4.492,4.62
		v2.595h-3.038v3.48h3.038v8.988H14.431c-0.696,0-1.266-0.57-1.266-1.267V14.177c0-0.696,0.57-1.266,1.266-1.266h20.696
		c0.697,0,1.267,0.569,1.267,1.266v20.696H36.456z"/>
</g>
</svg>
