<?xml version="1.0" encoding="utf-8"?>
<!-- Generator: Adobe Illustrator 21.0.0, SVG Export Plug-In . SVG Version: 6.00 Build 0)  -->
<svg version="1.1" id="Layer_1" xmlns="http://www.w3.org/2000/svg" xmlns:xlink="http://www.w3.org/1999/xlink" x="0px" y="0px"
	 viewBox="0 0 50 50" style="enable-background:new 0 0 50 50;" xml:space="preserve">
<style type="text/css">
	.st0{fill:#FFFFFF;}
</style>
<g id="Facebook_6_">
	<path class="st0" d="M25,50C11.2,50,0,38.8,0,25S11.2,0,25,0c13.8,0,25,11.2,25,25S38.8,50,25,50z M25,1.9
		C12.3,1.9,1.9,12.3,1.9,25c0,12.7,10.4,23.1,23.1,23.1c12.7,0,23.1-10.4,23.1-23.1C48.1,12.3,37.7,1.9,25,1.9z"/>
	<path id="Facebook_1_" class="st0" d="M36.5,34.9c0,0.7-0.6,1.3-1.3,1.3h-5.9v-9h3l0.4-3.5h-3.5v-2.2c0-1,0.3-1.7,1.7-1.7h1.8v-3.2
		c-0.3-0.1-1.4-0.1-2.7-0.1c-2.7,0-4.5,1.6-4.5,4.6v2.6h-3v3.5h3v9H14.4c-0.7,0-1.3-0.6-1.3-1.3V14.2c0-0.7,0.6-1.3,1.3-1.3h20.7
		c0.7,0,1.3,0.6,1.3,1.3L36.5,34.9L36.5,34.9z"/>
</g>
</svg>
