<?xml version="1.0" encoding="utf-8"?>
<!-- Generator: Adobe Illustrator 16.0.0, SVG Export Plug-In . SVG Version: 6.00 Build 0)  -->
<!DOCTYPE svg PUBLIC "-//W3C//DTD SVG 1.1//EN" "http://www.w3.org/Graphics/SVG/1.1/DTD/svg11.dtd">
<svg version="1.1" id="Layer_1" xmlns="http://www.w3.org/2000/svg" xmlns:xlink="http://www.w3.org/1999/xlink" x="0px" y="0px"
	 width="50px" height="50px" viewBox="0 0 50 50" enable-background="new 0 0 50 50" xml:space="preserve">
<g id="Twitter_7_">
	<path id="Twitter_1_" fill="#24A9E6" d="M35.95,15.379c-0.95,0.569-1.962,1.013-3.103,1.203C31.963,15.632,30.697,15,29.305,15
		c-2.658,0-4.873,2.215-4.873,5c0,0.381,0.062,0.76,0.126,1.14c-4.051-0.19-7.596-2.215-10.001-5.19
		c-0.443,0.76-0.633,1.583-0.633,2.533c0,1.708,0.887,3.227,2.152,4.177c-0.822,0-1.519-0.253-2.214-0.633v0.064
		c0,2.405,1.645,4.43,3.925,4.874c-0.381,0.126-0.824,0.189-1.267,0.189c-0.315,0-0.632,0-0.885-0.063
		c0.632,1.962,2.405,3.418,4.557,3.481c-1.646,1.329-3.734,2.151-6.012,2.151c-0.38,0-0.76,0-1.14-0.063
		c2.152,1.393,4.684,2.216,7.469,2.216c8.923,0,13.861-7.595,13.861-14.178c0-0.189,0-0.443,0-0.632
		c0.949-0.697,1.771-1.582,2.405-2.595c-0.887,0.38-1.836,0.696-2.785,0.759C34.812,17.468,35.57,16.518,35.95,15.379z"/>
	<path fill="#24A9E6" d="M25,49.999c-13.797,0-25-11.201-25-25C0,11.202,11.203,0,25,0c13.799,0,25,11.202,25,25
		C50,38.798,38.799,49.999,25,49.999z M25,1.898c-12.721,0-23.101,10.38-23.101,23.101c0,12.723,10.38,23.102,23.101,23.102
		c12.722,0,23.102-10.379,23.102-23.102C48.102,12.278,37.722,1.898,25,1.898z"/>
</g>
</svg>
