<?xml version="1.0" encoding="utf-8"?>
<!-- Generator: Adobe Illustrator 16.0.0, SVG Export Plug-In . SVG Version: 6.00 Build 0)  -->
<!DOCTYPE svg PUBLIC "-//W3C//DTD SVG 1.1//EN" "http://www.w3.org/Graphics/SVG/1.1/DTD/svg11.dtd">
<svg version="1.1" id="Layer_1" xmlns="http://www.w3.org/2000/svg" xmlns:xlink="http://www.w3.org/1999/xlink" x="0px" y="0px"
	 width="362.615px" height="252.193px" viewBox="68.692 73.895 362.615 252.193"
	 enable-background="new 68.692 73.895 362.615 252.193" xml:space="preserve"

	 >
<g>
	<path fill="#FFFFFF" d="M262.756,131.544c2.672,13.696,4.788,24.516,21.549,32.004c4.844,2.164,9.723,3.26,14.5,3.26
		c3.731,0,7.247-0.688,10.472-1.996c0.88,1.152,1.832,2.296,2.852,3.424c-3.548,8.488-5.664,16.956-5.664,24.564h7.208
		c0-5.92,1.468-12.508,4.016-19.228c6.616,5.192,14.692,7.94,23.629,7.94c6.752,0,13.647-1.556,20.512-4.624
		c23.712-10.6,26.728-26.036,30.544-45.584c2.72-13.916,6.1-31.236,18.088-52c0.816-1.416,0.58-3.2-0.58-4.352
		c-0.896-0.892-2.172-1.248-3.348-0.96c-0.185,0.028-0.517,0.076-0.984,0.14c-18.708,2.624-64.592,11.096-86.5,33.004
		c-1.939,1.94-3.691,3.888-5.324,5.828c-14.999-13.94-43.071-19.696-58.731-21.892l-0.624-0.088c-1.173-0.252-2.416,0.1-3.296,0.984
		c-1.144,1.156-1.376,2.932-0.564,4.34C258.62,110.36,260.82,121.612,262.756,131.544z M324.144,112.236
		C342.56,93.82,380.32,85.464,400.696,82.16c-9.761,18.924-12.856,34.776-15.396,47.768c-3.684,18.856-6.111,31.316-26.416,40.388
		c-14.168,6.336-28.512,4.856-38.16-3.688c8.796-18.212,24.604-36.02,40.252-42.856l-2.884-6.6
		c-16.572,7.236-32.912,25.02-42.636,43.896c-6.132-7.712-8.356-15.588-6.66-23.944
		C310.404,129.188,315.568,120.812,324.144,112.236z M309.34,118.708c-3.904,5.716-6.472,11.4-7.604,16.988
		c-0.053,0.268-0.061,0.528-0.104,0.792c-5.116-5.228-11.991-10.376-22.159-15.072l-3.021,6.544
		c13.021,6.016,20.036,12.676,25.032,19.444c0.58,3.776,1.779,7.492,3.695,11.116c-5.367,1.692-11.652,1.26-17.928-1.548
		c-13.348-5.964-14.88-13.808-17.416-26.808c-1.66-8.5-3.664-18.776-9.628-30.976C274.232,101.616,297.468,107.216,309.34,118.708z"
		/>
	<path fill="#FFFFFF" d="M430.716,206.828c-2.3-8.584-10.632-14.584-20.256-14.584c-3.42,0-6.768,0.764-9.956,2.268
		c-12.316,5.808-57.404,26.96-76.1,35.232c0.016-0.34,0.056-0.68,0.056-1.024l-0.416,0.008
		c-1.771-10.148-10.576-17.916-21.228-17.916H260.82c-11.952,0-22.769-3.328-34.22-6.848c-12.084-3.712-24.584-7.56-39.072-7.56
		c-24.192,0-35.836,5.98-51.952,14.252c-6.664,3.42-14.14,7.248-23.648,11.26v-11.108H68.692v25.484v87.972v1.824h43.236v-15.836
		c21.32-5.956,45.812-9.236,72.02-9.38l4.156-0.013c26.528,0,40.996,1.549,59.56,6.36c10.336,2.681,20.54,1.7,31.464-3.044
		c37.304-16.208,98.94-48.488,134.652-69.104C432.932,224.028,432,211.64,430.716,206.828z M104.724,318.896H75.9V218.024h28.824
		V318.896z M410.176,228.844c-35.544,20.516-96.848,52.629-133.92,68.736c-9.428,4.088-18.02,4.947-26.784,2.68
		c-19.236-4.988-34.144-6.588-61.368-6.588l-4.196,0.012c-26.036,0.141-50.48,3.328-71.98,9.133v-73.088
		c11.06-4.52,19.5-8.832,26.94-12.652c15.784-8.104,26.208-13.46,48.66-13.46c13.4,0,25.372,3.684,36.952,7.244
		c11.46,3.524,23.304,7.168,36.34,7.168h41.992c7.367,0,13.392,5.576,14.239,12.716c-0.964,9.024-8.54,16.104-17.815,16.104H198.364
		v7.208h100.869c10.491,0,19.504-6.449,23.296-15.637c16.512-6.98,80.399-37.08,81.044-37.384c2.22-1.048,4.536-1.576,6.884-1.576
		c6.268,0,11.864,3.888,13.296,9.24C425.572,215.468,420.62,222.812,410.176,228.844z"/>
</g>
</svg>
