<?xml version="1.0" encoding="utf-8"?>
<!-- Generator: Adobe Illustrator 16.0.0, SVG Export Plug-In . SVG Version: 6.00 Build 0)  -->
<!DOCTYPE svg PUBLIC "-//W3C//DTD SVG 1.1//EN" "http://www.w3.org/Graphics/SVG/1.1/DTD/svg11.dtd">
<svg version="1.1"
	 id="Layer_1" xmlns:cc="http://creativecommons.org/ns#" xmlns:svg="http://www.w3.org/2000/svg" xmlns:dc="http://purl.org/dc/elements/1.1/" xmlns:sodipodi="http://sodipodi.sourceforge.net/DTD/sodipodi-0.dtd" xmlns:rdf="http://www.w3.org/1999/02/22-rdf-syntax-ns#" xmlns:inkscape="http://www.inkscape.org/namespaces/inkscape"
	 xmlns="http://www.w3.org/2000/svg" xmlns:xlink="http://www.w3.org/1999/xlink" x="0px" y="0px" width="120.001px" height="192px"
	 viewBox="189.999 104 120.001 192" enable-background="new 189.999 104 120.001 192" xml:space="preserve"
	 >
<g transform="translate(0,-952.36218)">
	<path  
	fill="#FFFFFF" d="M250.039,1056.362c-29.829,0-54.096,20.003-59.836,43c-0.693,2.097,0.443,4.36,2.54,5.054
		s4.358-0.444,5.051-2.542c0.069-0.208,0.121-0.421,0.154-0.638c4.692-18.799,25.894-36.875,52.091-36.875
		c13.022,0,26.243,4.611,35.977,12.5c9.734,7.889,15.989,18.833,15.989,31.5c0,14.378-3.181,22.468-7.87,28.5
		c-4.688,6.032-11.338,10.14-18.488,15.25c-7.148,5.11-14.723,11.271-20.361,21.75c-5.639,10.479-9.244,25.056-9.244,46.5
		c-0.032,2.209,1.731,4.025,3.939,4.059c2.207,0.031,4.023-1.733,4.056-3.942c0.001-0.039,0.001-0.077,0-0.116
		c0-20.556,3.39-33.604,8.245-42.625c4.854-9.021,11.271-14.235,18.113-19.125c6.841-4.89,14.182-9.407,19.986-16.875
		s9.619-17.753,9.619-33.375c0-15.333-7.744-28.514-18.988-37.625C279.768,1061.625,264.967,1056.362,250.039,1056.362
		L250.039,1056.362z M250.039,1232.362c-4.416,0-7.995,3.581-7.995,8c0,4.418,3.579,8,7.995,8s7.995-3.582,7.995-8
		C258.033,1235.943,254.454,1232.362,250.039,1232.362z"/>
</g>
</svg>
